# xmcd
#
# Track frame offsets:
# 183
# 17238
# 33190
# 58113
# 80063
# 99590
# 119438
# 142385
# 165178
# 177425
# 195373
# 219163
#
# Disc length: 3224 seconds
#
#
# Revision: 6
# Processed by: cddbd v1.5.2PL0 Copyright (c) Steve Scherf et al.
# Submitted via: FreeRIP 2.951 
#
DISCID=a20c960c
DTITLE=Bonnie Raitt - Luck Of The Draw
DYEAR=1991
DGENRE=Blues
TTITLE0=Something To Talk About
TTITLE1=Good Man, Good Woman
TTITLE2=I Can't Make You Love Me
TTITLE3=Tangled And Dark
TTITLE4=Come To Me
TTITLE5=No Business
TTITLE6=One Part Be My Lover
TTITLE7=Not The Only One
TTITLE8=Papa Come Quick (Jody And Chico)
TTITLE9=Slow Ride
TTITLE10=Luck Of The Draw
TTITLE11=All At Once
EXTD=
EXTT0=
EXTT1=
EXTT2=
EXTT3=
EXTT4=
EXTT5=
EXTT6=
EXTT7=
EXTT8=
EXTT9=
EXTT10=
EXTT11=
PLAYORDER=
